<?xml version="1.0" encoding="UTF-8"?>
<svg id="Layer_2" data-name="Layer 2" xmlns="http://www.w3.org/2000/svg" viewBox="0 0 817.78 1004.4">
  <defs>
    <style>
      .cls-1 {
        fill: #0d3b66;
      }
    </style>
  </defs>
  <g id="Layer_1-2" data-name="Layer 1">
    <path class="cls-1" d="M132.19,553.39h195.7c0,112.75,28.51,195.7,115.34,221.62,18.14-24.62,28.51-60.91,28.51-108.86V312.34H111.46V147.74L276.05,0H817.78V677.81c0,196.99-136.08,326.59-331.78,326.59h-142.56C147.74,1004.4,0,877.4,0,672.63l132.19-119.23Zm209.95,303.27c-94.61,0-198.29-51.84-207.36-256.61l-99.79,89.42c5.18,171.07,133.49,279.94,308.45,279.94s283.83-114.05,283.83-291.6V196.99l-120.53,107.57v361.59c0,124.42-66.1,190.51-164.59,190.51ZM146.45,255.31l120.53-107.57V57.02l-120.53,107.57v90.72Zm147.74,333.07h-124.42c5.18,191.81,95.9,233.28,172.37,233.28,28.51,0,53.14-6.48,73.87-19.44-86.83-36.29-119.23-121.82-121.83-213.84Zm189.22-311.04l116.64-103.68H290.31l-115.34,103.68H483.41Zm178.85,400.47c0,138.67-60.91,243.65-165.89,294.19,171.07-3.89,286.42-120.53,286.42-294.19V34.99H301.97v103.68h360.29V677.81Z"/>
  </g>
</svg>